# xmcd
#
# Track frame offsets: 
#        150
#        14684
#        28238
#        43293
#        62365
#        79471
#        93695
#        109971
#        121774
#        133100
#        143507
#        159047
#        171775
#        187871
#        202136
#        214439
#        223566
#        236247
#        252581
#        265872
#        286477
#        299162
#        316159
#
# Disc length: 4434 seconds
#
# Revision: 0
# Processed by: cddbd v1.5.2PL0 Copyright (c) Steve Scherf et al.
# Submitted via: ExactAudioCopy v0.99pb5
#
DISCID=6d115017
DTITLE=Doina Badea - Ploaia si noi
DYEAR=1900
DGENRE=
TTITLE0=Ploaia si noi
TTITLE1=Soapte de iubire
TTITLE2=Canta un matelot
TTITLE3=Vechiul pian
TTITLE4=Cantau privighetori
TTITLE5=In carciumioara unde canta un cobzar
TTITLE6=Pastreaza-ma doar pt. tine
TTITLE7=Pentru nimic in lume
TTITLE8=Nu vreau sa vad pe nimeni trist
TTITLE9=Te-am iubit
TTITLE10=Haulita
TTITLE11=Lacrimi de fericire
TTITLE12=Iubeste-ma cum te iubesc si eu
TTITLE13=Aurevoir,bye,bye,ciao,ciao
TTITLE14=Cand eram copii odata
TTITLE15=Cum e iubirea
TTITLE16=De unde stii vioara tu
TTITLE17=Cred in fericirea noastra
TTITLE18=Trecea o satra de nomazi
TTITLE19=Mi-e dor de ochii tai
TTITLE20=Poate odata vom trai din amintiri
TTITLE21=Mai spune-mi ca nu mai uitat
TTITLE22=Deschide,deschide,fereastra
EXTD=
EXTT0=
EXTT1=
EXTT2=
EXTT3=
EXTT4=
EXTT5=
EXTT6=
EXTT7=
EXTT8=
EXTT9=
EXTT10=
EXTT11=
EXTT12=
EXTT13=
EXTT14=
EXTT15=
EXTT16=
EXTT17=
EXTT18=
EXTT19=
EXTT20=
EXTT21=
EXTT22=
PLAYORDER=
